<svg width="226" height="80" viewBox="0 0 226 80" fill="none" xmlns="http://www.w3.org/2000/svg">
<path d="M81.2549 79.8075C90.9102 79.8075 95.9325 74.3022 98.2295 69.3744H98.9303V80H115.2V0H98.7356V29.6439H98.2295C96.0104 24.8316 91.2217 18.9413 81.216 18.9413C68.0958 18.9413 57 29.0279 57 49.3551C57 69.1434 67.6286 79.8075 81.2549 79.8075ZM86.5108 66.7565C78.3739 66.7565 73.9356 59.5958 73.9356 49.2781C73.9356 39.0375 78.2961 31.9923 86.5108 31.9923C94.5699 31.9923 99.086 38.7295 99.086 49.2781C99.086 59.8268 94.492 66.7565 86.5108 66.7565Z" fill="#2B78CA"/>
<path d="M29.6666 80C44.4609 80 54.4276 72.8778 56.7636 61.9057L41.4242 60.9047C39.7501 65.409 35.4675 67.7574 29.9391 67.7574C21.6465 67.7574 16.3906 62.3292 16.3906 53.513V53.4745H57.114V48.9702C57.114 28.8739 44.8113 18.9413 29.0047 18.9413C11.4072 18.9413 0 31.2993 0 49.5476C0 68.2964 11.2515 80 29.6666 80ZM16.3906 43.3109C16.741 36.5736 21.919 31.1838 29.2772 31.1838C36.4797 31.1838 41.4631 36.2656 41.502 43.3109H16.3906Z" fill="#2B78CA"/>
<path d="M115.2 80H131.536V69.4078H132.275C134.57 74.338 139.587 79.8459 149.233 79.8459C162.846 79.8459 173.464 69.1767 173.464 49.3789C173.464 29.0419 162.379 18.9504 149.272 18.9504C139.276 18.9504 134.492 24.8435 132.275 29.6582H131.769V0L115.2 0V80ZM131.419 49.3019C131.419 38.7482 135.931 32.0077 143.982 32.0077C152.189 32.0077 156.545 39.0563 156.545 49.3019C156.545 59.6245 152.111 66.7887 143.982 66.7887C136.009 66.7887 131.419 59.8556 131.419 49.3019Z" fill="#FF9000"/>
<path d="M191.836 80C200.665 80 206.383 76.1868 209.3 70.6789H209.767V80H225.48V38.9793C225.48 24.882 213.423 18.9504 200.121 18.9504C185.808 18.9504 176.395 25.7294 174.1 36.5142L189.425 37.7468C190.553 33.818 194.092 30.9292 200.043 30.9292C205.683 30.9292 208.911 33.741 208.911 38.5941V38.8252C208.911 42.6384 204.827 43.1392 194.442 44.1406C182.618 45.2191 172 49.1478 172 62.3592C172 74.0684 180.44 80 191.836 80ZM219.685 0H181.801V8.89745H219.685V0ZM196.581 68.676C191.486 68.676 187.83 66.3264 187.83 61.8199C187.83 57.1979 191.681 54.9254 197.515 54.1165C201.132 53.6158 207.044 52.7684 209.028 51.4588V57.7372C209.028 63.9384 203.855 68.676 196.581 68.676Z" fill="#FF9000"/>
</svg>
